HIERARCHY
ROOT Hips
{
	OFFSET 0.00000 0.00000 0.00000
	CHANNELS 6 Xposition Yposition Zposition Yrotation Zrotation Xrotation 
	JOINT Lumbar
	{
		OFFSET 0 0 0
		CHANNELS 3 Zrotation Xrotation Yrotation
		JOINT Neck
		{
			OFFSET 0.00 0.2701 0.00
			CHANNELS 3 Zrotation Xrotation Yrotation
			End Site
			{
				OFFSET 0.00 0.1379 0.00
			}
		}
		JOINT RightShoulder
		{
			OFFSET 0.0119 0.2289 0.1181
			CHANNELS 3 Zrotation Xrotation Yrotation
			JOINT RightElbow
			{
				OFFSET 0.00 -0.1475 0.00
				CHANNELS 2 Zrotation Yrotation
				JOINT RightWrist
				{
					OFFSET 0.00 -0.1605 0.00
					CHANNELS 2 Zrotation Xrotation
					End Site
					{
						OFFSET 0.0040 -0.1068 0.0006
					}
				}
			}
		}
		JOINT LeftShoulder
		{
			OFFSET 0.0119 0.2289 -0.1181
			CHANNELS 3 Zrotation Xrotation Yrotation
			JOINT LeftElbow
			{
				OFFSET 0.00 -0.1475 0.00
				CHANNELS 2 Zrotation Yrotation
				JOINT LeftWrist
				{
					OFFSET 0.00 -0.1605 0.00
					CHANNELS 2 Zrotation Xrotation
					End Site
					{
						OFFSET 0.0040 -0.1068 -0.0006
					}
				}
			}
		}
	}
	JOINT RightHip
	{
		OFFSET 0.0316 -0.0424 0.0458
		CHANNELS 3 Zrotation Xrotation Yrotation
		JOINT RightKnee
		{
			OFFSET 0.00 -0.2438 0.00
			CHANNELS 1 Zrotation
			JOINT RightAnkle
			{
				OFFSET 0.00 -0.2449 0.00
				CHANNELS 3 Zrotation Xrotation Yrotation
				End Site
				{
					OFFSET 0.1237 -0.0542 0.0051
				}
			}
		}
	}
	JOINT LeftHip
	{
		OFFSET 0.0316 -0.0424 -0.0458
		CHANNELS 3 Zrotation Xrotation Yrotation
		JOINT LeftKnee
		{
			OFFSET 0.00 -0.2438 0.00
			CHANNELS 1 Zrotation
			JOINT LeftAnkle
			{
				OFFSET 0.00 -0.2449 0.00
				CHANNELS 3 Zrotation Xrotation Yrotation
				End Site
				{
					OFFSET 0.1237 -0.0542 -0.0051
				}
			}
		}
	}
}
MOTION
Frames: 23
Frame Time: 0.02
-0 0.57926 -0 177.10078 0 3.98098 9.67315 -0.78987 -1.01446 -34.4205 1.22226 4.27218 27.36758 -13.51157 5.42646 12.02279 82.61583 0.28315 1.51837 26.94156 4.50591 1.8654 8.66893 -76.75156 -4.72361 -0.96961 -3.08093 3.89217 11.96605 -18.22595 12.65607 -10.24825 -12.13198 -2.84966 -5.51989 -15.03283 -14.36882 9.50837 6.65079 8.92423
0.0004 0.57928 0.00029 177.18142 0 3.97003 9.67144 -0.82738 -1.04756 -34.44222 1.23225 4.23913 27.35769 -13.51114 5.28657 12.08103 82.65458 0.2904 1.46481 26.95199 4.52038 1.83457 8.67784 -76.71385 -4.71715 -0.96107 -2.97936 3.90174 11.9527 -18.36227 12.66578 -10.26069 -12.1863 -2.79117 -5.53062 -15.14146 -14.39013 9.50197 6.64879 8.92324
0.0008 0.57929 0.00058 177.26206 0 3.9591 9.66978 -0.86467 -1.08041 -34.46384 1.24201 4.20619 27.34778 -13.51046 5.14486 12.13838 82.69285 0.29753 1.41172 26.96243 4.53497 1.80385 8.6867 -76.67624 -4.71081 -0.95262 -2.87831 3.9112 11.939 -18.49768 12.67538 -10.27303 -12.24029 -2.73261 -5.54139 -15.24966 -14.41175 9.49562 6.64672 8.92207
0.00119 0.5793 0.00088 177.34353 0 3.94816 9.66836 -0.90138 -1.11269 -34.48564 1.25098 4.17329 27.33791 -13.5086 4.99353 12.19293 82.7294 0.30439 1.35903 26.97364 4.55015 1.77326 8.69522 -76.63841 -4.70485 -0.94448 -2.77892 3.92025 11.92348 -18.62986 12.68453 -10.28507 -12.29331 -2.6734 -5.55234 -15.35733 -14.43468 9.48941 6.6445 8.9204
0.0016 0.57931 0.00117 177.42066 0 3.93728 9.66574 -0.94106 -1.14813 -34.50696 1.26418 4.14011 27.32811 -13.51274 4.89192 12.26251 82.77482 0.31285 1.30308 26.9815 4.56218 1.74202 8.70527 -76.60147 -4.69684 -0.93474 -2.6714 3.93141 11.91723 -18.77805 12.69596 -10.29869 -12.35124 -2.61787 -5.56223 -15.46796 -14.45051 9.48248 6.64326 8.92171
0.00199 0.57933 0.00146 177.50687 0 3.92631 9.6656 -0.97446 -1.17678 -34.52893 1.2684 4.10758 27.31799 -13.50435 4.6861 12.30009 82.80158 0.31781 1.25486 26.99595 4.58091 1.71217 8.71228 -76.56288 -4.69319 -0.92838 -2.58073 3.93812 11.89165 -18.89297 12.7026 -10.30899 -12.39888 -2.55445 -5.57441 -15.57209 -14.48142 9.47705 6.63983 8.9165
0.00235 0.57936 0.00176 177.62162 0 3.9146 9.67299 -0.99062 -1.1875 -34.55625 1.2474 4.07579 27.30821 -13.45883 4.16932 12.2487 82.77456 0.31392 1.22061 27.03383 4.61904 1.68436 8.70904 -76.51672 -4.70176 -0.93153 -2.53976 3.93223 11.8077 -18.90952 12.69531 -10.30969 -12.41721 -2.46804 -5.5931 -15.66166 -14.5557 9.47588 6.63107 8.89414
0.0027 0.5794 0.00206 177.74503 0 3.9029 9.68276 -1.00049 -1.1913 -34.58363 1.21746 4.04485 27.29791 -13.40123 3.55145 12.16524 82.72923 0.30647 1.19529 27.07748 4.66385 1.65742 8.70305 -76.46938 -4.71457 -0.93807 -2.51522 3.92189 11.705 -18.8936 12.6833 -10.30718 -12.42532 -2.37381 -5.61408 -15.74407 -14.6449 9.47621 6.61998 8.86496
0.00305 0.57944 0.00236 177.86237 0 3.89149 9.69098 -1.01312 -1.19768 -34.60863 1.19177 4.01409 27.28702 -13.35058 2.99368 12.09654 82.69355 0.29991 1.17091 27.11508 4.70502 1.63228 8.69954 -76.42452 -4.72555 -0.94292 -2.48099 3.91383 11.6141 -18.89693 12.67388 -10.30637 -12.43873 -2.28379 -5.63393 -15.82778 -14.72631 9.47575 6.6095 8.83841
0.0034 0.57948 0.00267 177.98871 0 3.87875 9.70112 -1.02593 -1.20621 -34.64337 1.16502 3.98075 27.2795 -13.29318 2.37443 12.02632 82.65171 0.29586 1.12627 27.16698 4.7486 1.60133 8.6909 -76.37158 -4.73677 -0.94836 -2.45593 3.90477 11.50966 -18.88171 12.66254 -10.30435 -12.44944 -2.19091 -5.65419 -15.92009 -14.8122 9.47568 6.6009 8.81412
0.00376 0.57952 0.00296 178.09837 0 3.86889 9.70791 -1.03715 -1.20888 -34.65806 1.13871 3.95324 27.26499 -13.24773 1.86145 11.95259 82.61903 0.28643 1.1249 27.1907 4.78894 1.57837 8.69224 -76.33505 -4.74768 -0.95344 -2.41595 3.89665 11.42863 -18.89687 12.65414 -10.30431 -12.46327 -2.10228 -5.6741 -15.99234 -14.89201 9.47521 6.58781 8.78314
0.00414 0.57956 0.0032 178.15992 0 3.86601 9.70424 -1.04331 -1.19483 -34.61641 1.11278 3.93969 27.23164 -13.23192 1.6461 11.86798 82.61293 0.25806 1.25089 27.13505 4.81751 1.61122 8.72183 -76.34527 -4.76344 -0.95576 -2.3284 3.89295 11.41986 -19.00851 12.65448 -10.30868 -12.48866 -2.02548 -5.69294 -16.01509 -14.95472 9.47315 6.56318 8.73875
0.00452 0.5796 0.00341 178.20444 0 3.86619 9.69736 -1.04851 -1.17557 -34.55534 1.08819 3.93245 27.19231 -13.22994 1.54414 11.78193 82.61915 0.22607 1.41889 27.05211 4.84317 1.64368 8.76126 -76.37194 -4.77724 -0.95761 -2.22574 3.89024 11.43479 -19.15097 12.65811 -10.31551 -12.51739 -1.95336 -5.7113 -16.01732 -15.01064 9.47087 6.5342 8.68741
0.0049 0.57964 0.00363 178.25666 0 3.86564 9.69216 -1.0556 -1.16009 -34.50305 1.06494 3.92347 27.15416 -13.22549 1.40483 11.70335 82.61948 0.19804 1.56027 26.98019 4.87045 1.6567 8.79657 -76.39013 -4.78785 -0.96048 -2.13151 3.88654 11.43683 -19.27625 12.66046 -10.32238 -12.54437 -1.88047 -5.72951 -16.02602 -15.06695 9.46846 6.5068 8.63682
0.00528 0.57968 0.00387 178.30913 0 3.86244 9.68552 -1.05633 -1.13822 -34.44855 1.03308 3.90933 27.11806 -13.20367 1.20569 11.59773 82.61275 0.15703 1.73116 26.90925 4.89518 1.76108 8.83155 -76.41197 -4.81685 -0.96069 -2.03113 3.88486 11.44697 -19.41378 12.66138 -10.32417 -12.57222 -1.80232 -5.74919 -16.0458 -15.13336 9.46615 6.48033 8.59543
0.00565 0.57972 0.00407 178.35719 0 3.86532 9.6818 -1.07018 -1.12874 -34.39709 1.01968 3.90796 27.08182 -13.22252 1.15493 11.54492 82.63345 0.1461 1.8537 26.83605 4.92635 1.66442 8.86804 -76.43085 -4.80576 -0.96552 -1.93991 3.87941 11.44637 -19.53356 12.66657 -10.33724 -12.59889 -1.73541 -5.76586 -16.03861 -15.17917 9.46475 6.45174 8.53423
0.00599 0.57975 0.00417 178.39293 0 3.88496 9.68032 -1.11956 -1.15255 -34.33283 1.0562 3.93614 27.00089 -13.34162 1.52539 11.672 82.63881 0.18327 1.80326 26.7087 4.96031 1.10229 8.92241 -76.43369 -4.69772 -0.98879 -1.87588 3.86232 11.40884 -19.59692 12.67875 -10.3797 -12.62264 -1.70573 -5.77263 -15.95429 -15.15209 9.4554 6.4118 8.41357
0.0063 0.57977 0.00423 178.42431 0 3.91009 9.68272 -1.18192 -1.18924 -34.27717 1.11138 3.97788 26.92974 -13.50288 2.03451 11.84794 82.68346 0.25553 1.70726 26.58999 5.00426 0.3203 8.97689 -76.43522 -4.54868 -1.01491 -1.82158 3.84187 11.36058 -19.64166 12.69577 -10.43317 -12.64408 -1.68537 -5.77659 -15.84488 -15.10891 9.44876 6.37139 8.27536
0.00662 0.57978 0.00431 178.46209 0 3.93275 9.68812 -1.23959 -1.22184 -34.2346 1.15862 4.01599 26.88265 -13.6506 2.45483 11.97732 82.77361 0.33781 1.65229 26.50337 5.05325 -0.41873 9.01838 -76.43797 -4.40739 -1.03708 -1.7643 3.82331 11.31765 -19.69477 12.71335 -10.48296 -12.66696 -1.65662 -5.78305 -15.75221 -15.0831 9.448 6.33516 8.1483
0.00697 0.57983 0.0044 178.48584 0 3.95704 9.67484 -1.29407 -1.24778 -34.11956 1.20388 4.04307 26.71023 -13.77505 2.98761 12.20215 82.61491 0.31862 1.51648 26.2646 5.05961 -0.91393 9.107 -76.43248 -4.30461 -1.07366 -1.70155 3.80217 11.27148 -19.74857 12.71982 -10.5292 -12.69178 -1.6476 -5.78473 -15.63683 -15.00977 9.41795 6.28088 8.00383
0.00725 0.57981 0.00444 178.53142 0 3.97714 9.69949 -1.35583 -1.2895 -34.1578 1.25736 4.09695 26.80723 -13.95784 3.318 12.24898 82.96083 0.5088 1.53331 26.34405 5.15977 -1.97346 9.10719 -76.4514 -4.12116 -1.07687 -1.65126 3.78694 11.23185 -19.79707 12.74999 -10.58298 -12.7076 -1.59708 -5.79519 -15.56237 -15.03775 9.44863 6.2656 7.89628
0.00731 0.57965 0.00435 178.69375 0 4.00244 9.84348 -1.45601 -1.38155 -34.61393 1.33189 4.21543 27.59057 -14.29001 3.05219 11.72045 84.8913 1.35803 2.0183 27.30309 5.49683 -4.49618 8.78624 -76.47446 -3.64868 -1.02236 -1.64499 3.77686 11.19034 -19.82757 12.84906 -10.67495 -12.73591 -1.45185 -5.83505 -15.61405 -15.29694 9.65377 6.34483 7.85318
0.00732 0.57943 0.00421 178.86722 0 4.02024 10.02193 -1.55938 -1.48688 -35.22256 1.41351 4.36124 28.65185 -14.67898 2.57829 11.02933 87.29378 2.40049 2.65038 28.57683 5.93331 -7.58317 8.39563 -76.53597 -3.11269 -0.92813 -1.6485 3.77476 11.16001 -19.85496 12.97088 -10.76972 -12.74805 -1.26053 -5.88308 -15.70716 -15.66804 9.91826 6.46518 7.85467
